#!OML:ASF X:\für Bonn\!DataBase\2005_08_11_Bastian_Final\c3d\Bastian.ASF
:FULLY-SPECIFIED
:DEGREES
151
root 0.00353093 17.4563 6.28007 177.296 -11.3521 -180.672
lowerback 13.1603 -2.16566 -0.815161
upperback 5.3823 -3.57029 0.147235
thorax -1.66034 -2.04641 1.1268
lowerneck -11.5345 -5.07503 -3.15785
upperneck -6.2468 -7.17611 9.89278
head 0.510466 -3.8288 3.45523
rclavicle -1.03151e-014 -1.64774e-015
rhumerus 68.9169 22.9325 -2.02162
rradius 39.4309
rwrist -52.1955
rhand -44.9918 -7.05518
rfingers 7.12502
rthumb -17.7758 -36.2627
lclavicle -1.03151e-014 -1.64774e-015
lhumerus 75.279 -24.1169 -14.672
lradius 31.3721
lwrist 11.6158
lhand -45.2112 18.6286
lfingers 7.12502
lthumb -17.9869 47.8169
rfemur -10.458 1.91685 23.9797
rtibia 41.5824
rfoot -23.5492 -17.4452
rtoes 6.82281
lfemur -7.97844 -2.31104 -20.325
ltibia 30.5027
lfoot -11.8029 -6.76082
ltoes -9.45791
152
root -0.00538191 17.4594 6.25723 177.27 -11.2125 -180.581
lowerback 12.5775 -2.13513 -0.768558
upperback 5.36724 -3.50112 0.132392
thorax -1.36774 -2.0054 1.04476
lowerneck -11.5064 -5.09739 -3.22773
upperneck -6.16394 -7.1939 9.92313
head 0.538627 -3.83043 3.47713
rclavicle 1.00355e-014 -1.2424e-015
rhumerus 69.2143 23.1403 -0.535924
rradius 39.7395
rwrist -52.9364
rhand -45.2445 -7.32713
rfingers 7.12502
rthumb -18.019 -36.5124
lclavicle 1.00355e-014 -1.2424e-015
lhumerus 75.3836 -24.2276 -14.8978
lradius 31.3342
lwrist 11.453
lhand -45.0189 18.5666
lfingers 7.12502
lthumb -17.8018 47.7717
rfemur -10.0079 3.18425 24.3129
rtibia 41.1188
rfoot -23.8424 -18.4935
rtoes 7.19031
lfemur -7.68867 -1.69586 -20.1647
ltibia 30.2217
lfoot -11.85 -7.25507
ltoes -9.17328
153
root -0.0135955 17.4584 6.23914 177.254 -11.0677 -180.513
lowerback 12.0271 -2.09451 -0.741227
upperback 5.359 -3.4236 0.119103
thorax -1.08355 -1.96109 0.976791
lowerneck -11.4843 -5.11564 -3.30802
upperneck -6.11709 -7.20555 9.94241
head 0.555477 -3.83096 3.49796
rclavicle -1.02188e-015 -3.95085e-015
rhumerus 69.4887 23.2917 0.993494
rradius 40.0978
rwrist -53.7183
rhand -45.5133 -7.52682
rfingers 7.12502
rthumb -18.2775 -36.6881
lclavicle -1.02188e-015 -3.95085e-015
lhumerus 75.4096 -24.2897 -14.869
lradius 31.2137
lwrist 10.9819
lhand -44.7405 18.46
lfingers 7.12502
lthumb -17.5339 47.6893
rfemur -9.64276 4.49365 24.6275
rtibia 40.7737
rfoot -24.1549 -19.5437
rtoes 7.58497
lfemur -7.50414 -1.01469 -20.0191
ltibia 30.0871
lfoot -11.9334 -7.81686
ltoes -8.9653
154
root -0.0220733 17.4536 6.2236 177.249 -10.9443 -180.467
lowerback 11.4868 -2.06311 -0.729144
upperback 5.35925 -3.36199 0.0955496
thorax -0.794641 -1.92531 0.910156
lowerneck -11.4664 -5.12323 -3.37127
upperneck -6.08624 -7.20671 9.96832
head 0.566679 -3.82805 3.51868
rclavicle -7.64265e-014 1.17531e-014
rhumerus 69.7174 23.4065 2.35919
rradius 40.427
rwrist -54.3342
rhand -45.773 -7.67232
rfingers 7.12502
rthumb -18.5274 -36.81
lclavicle -7.64265e-014 1.17531e-014
lhumerus 75.3054 -24.3211 -14.5656
lradius 31.0359
lwrist 10.1439
lhand -44.3755 18.3757
lfingers 7.12502
lthumb -17.1827 47.636
rfemur -9.35197 5.75837 24.9109
rtibia 40.5305
rfoot -24.5289 -20.5797
rtoes 8.0087
lfemur -7.39047 -0.242049 -19.8849
ltibia 30.0655
lfoot -12.0412 -8.50269
ltoes -8.7872
